# xmcd CD database file
#
# Track frame offsets:
#	150
#	10713
#	23800
#	38863
#	52163
#	66118
#	79235
#	92830
#	107093
#	119033
#	129718
#	140910
#	155975
#	174863
#
# Disc length: 2506 seconds
#
# Revision: 0
# Processed by: cddbd v1.4PL0 Copyright (c) Steve Scherf et al.
# Submitted via: CDex 1.50beta9
#
DISCID=c909c80e
DTITLE=HUGO DUNCAN - THE WEE MAN FROM STRABANE
DYEAR=1900
DGENRE=Country
TTITLE0=Ashes Of Love
TTITLE1=Among The Wicklow Hills
TTITLE2=I will Marry You
TTITLE3=I Wish I Was Eighteen again
TTITLE4=Joseph McHugh
TTITLE5=Carrickfergus
TTITLE6=Little Shirt Me Mother Made For Me
TTITLE7=Do Yo Know You Are My Sunshine!
TTITLE8=Homes Of Donegal
TTITLE9=When Your Old Wedding Ring Was New
TTITLE10=House With The White-Washed Gables
TTITLE11=A Daisy A Day
TTITLE12=The Old Refrain
TTITLE13=I'm Going Home Again
EXTD=
EXTT0=
EXTT1=
EXTT2=
EXTT3=
EXTT4=
EXTT5=
EXTT6=
EXTT7=
EXTT8=
EXTT9=
EXTT10=
EXTT11=
EXTT12=
EXTT13=
PLAYORDER=
